{
  "accessors": [
    {
      "bufferView": 2,
      "componentType": 5126,
      "count": 13212,
      "max": [
        1.8833186626434326,
        1.644148349761963,
        2.6446492671966553
      ],
      "min": [
        -1.8833191394805908,
        -1.644148349761963,
        -1.893268346786499
      ],
      "type": "VEC3"
    },
    {
      "bufferView": 2,
      "byteOffset": 158544,
      "componentType": 5126,
      "count": 13212,
      "max": [
        1.0,
        1.0,
        1.0
      ],
      "min": [
        -1.0,
        -1.0,
        -1.0
      ],
      "type": "VEC3"
    },
    {
      "bufferView": 1,
      "componentType": 5126,
      "count": 13212,
      "max": [
        0.9871261715888977,
        0.9982062578201294
      ],
      "min": [
        0.0017880306113511324,
        0.0017855394398793578
      ],
      "type": "VEC2"
    },
    {
      "bufferView": 0,
      "componentType": 5125,
      "count": 71382,
      "type": "SCALAR"
    },
    {
      "bufferView": 2,
      "byteOffset": 317088,
      "componentType": 5126,
      "count": 7620,
      "max": [
        2.574533462524414,
        2.7764196395874023,
        0.19108688831329346
      ],
      "min": [
        -0.1843719333410263,
        -2.762420415878296,
        -4.039356708526611
      ],
      "type": "VEC3"
    },
    {
      "bufferView": 2,
      "byteOffset": 408528,
      "componentType": 5126,
      "count": 7620,
      "max": [
        0.9999992847442627,
        0.9986187219619751,
        1.0
      ],
      "min": [
        -0.9986187219619751,
        -0.9996441006660461,
        -1.0
      ],
      "type": "VEC3"
    },
    {
      "bufferView": 3,
      "componentType": 5126,
      "count": 7620,
      "max": [
        1.0,
        1.0,
        1.0,
        1.0
      ],
      "min": [
        0.0784313753247261,
        0.1764705926179886,
        0.0,
        1.0
      ],
      "type": "VEC4"
    },
    {
      "bufferView": 1,
      "byteOffset": 105696,
      "componentType": 5126,
      "count": 7620,
      "max": [
        1.9348764419555664,
        0.9944862723350525
      ],
      "min": [
        0.001953125,
        0.001510806381702423
      ],
      "type": "VEC2"
    },
    {
      "bufferView": 0,
      "byteOffset": 285528,
      "componentType": 5125,
      "count": 26358,
      "type": "SCALAR"
    }
  ],
  "asset": {
    "extras": {
      "author": "Alex CGW (https://sketchfab.com/alex.cgwarrior)",
      "license": "CC-BY-NC-4.0 (http://creativecommons.org/licenses/by-nc/4.0/)",
      "source": "https://sketchfab.com/3d-models/capuchino-assasino-3d-model-free-77337e8ccd8644be9d6652fa6262998e",
      "title": "Capuchino Assasino 3D model FREE"
    },
    "generator": "Sketchfab-16.72.0",
    "version": "2.0"
  },
  "bufferViews": [
    {
      "buffer": 0,
      "byteLength": 390960,
      "name": "floatBufferViews",
      "target": 34963
    },
    {
      "buffer": 0,
      "byteLength": 166656,
      "byteOffset": 390960,
      "byteStride": 8,
      "name": "floatBufferViews",
      "target": 34962
    },
    {
      "buffer": 0,
      "byteLength": 499968,
      "byteOffset": 557616,
      "byteStride": 12,
      "name": "floatBufferViews",
      "target": 34962
    },
    {
      "buffer": 0,
      "byteLength": 121920,
      "byteOffset": 1057584,
      "byteStride": 16,
      "name": "floatBufferViews",
      "target": 34962
    }
  ],
  "buffers": [
    {
      "byteLength": 1179504,
      "uri": "scene.bin"
    }
  ],
  "images": [
    {
      "uri": "textures/Capuchino_baseColor.png"
    },
    {
      "uri": "textures/Capuchino_metallicRoughness.png"
    },
    {
      "uri": "textures/Katana_baseColor.jpeg"
    },
    {
      "uri": "textures/Katana_metallicRoughness.png"
    }
  ],
  "materials": [
    {
      "doubleSided": true,
      "name": "Capuchino",
      "occlusionTexture": {
        "index": 1
      },
      "pbrMetallicRoughness": {
        "baseColorTexture": {
          "index": 0
        },
        "metallicFactor": 0.0,
        "metallicRoughnessTexture": {
          "index": 1
        }
      }
    },
    {
      "doubleSided": true,
      "name": "Katana",
      "pbrMetallicRoughness": {
        "baseColorTexture": {
          "index": 2
        },
        "metallicRoughnessTexture": {
          "index": 3
        }
      }
    }
  ],
  "meshes": [
    {
      "name": "Cylinder_Capuchino_0",
      "primitives": [
        {
          "attributes": {
            "NORMAL": 1,
            "POSITION": 0,
            "TEXCOORD_0": 2
          },
          "indices": 3,
          "material": 0,
          "mode": 4
        }
      ]
    },
    {
      "name": "Blade_low_Katana_0",
      "primitives": [
        {
          "attributes": {
            "COLOR_0": 6,
            "NORMAL": 5,
            "POSITION": 4,
            "TEXCOORD_0": 7
          },
          "indices": 8,
          "material": 1,
          "mode": 4
        }
      ]
    }
  ],
  "nodes": [
    {
      "children": [
        1
      ],
      "matrix": [
        1.0,
        0.0,
        0.0,
        0.0,
        0.0,
        2.220446049250313e-16,
        -1.0,
        0.0,
        0.0,
        1.0,
        2.220446049250313e-16,
        0.0,
        0.0,
        0.0,
        0.0,
        1.0
      ],
      "name": "Sketchfab_model"
    },
    {
      "children": [
        2
      ],
      "matrix": [
        0.009999999776482582,
        0.0,
        0.0,
        0.0,
        0.0,
        0.0,
        0.009999999776482582,
        0.0,
        0.0,
        -0.009999999776482582,
        0.0,
        0.0,
        0.0,
        0.0,
        0.0,
        1.0
      ],
      "name": "4d19dd3d400c4ad6a60e36ff9847f33f.fbx"
    },
    {
      "children": [
        3,
        5
      ],
      "name": "RootNode"
    },
    {
      "children": [
        4
      ],
      "matrix": [
        100.0,
        0.0,
        0.0,
        0.0,
        0.0,
        -1.629206793918314e-05,
        -99.99999999999868,
        0.0,
        0.0,
        99.99999999999868,
        -1.629206793918314e-05,
        0.0,
        0.0,
        191.15292358398438,
        0.0,
        1.0
      ],
      "name": "Cylinder"
    },
    {
      "mesh": 0,
      "name": "Cylinder_Capuchino_0"
    },
    {
      "children": [
        6
      ],
      "matrix": [
        -53.98231089431606,
        93.29260063704085,
        -58.62311546811014,
        0.0,
        55.54521321259387,
        64.84861355557155,
        52.0517685490861,
        0.0,
        86.5767207777081,
        -4.463586676917482,
        -86.82634871665921,
        0.0,
        199.33346557617188,
        142.52830505371094,
        84.84142303466797,
        1.0
      ],
      "name": "Blade_low"
    },
    {
      "mesh": 1,
      "name": "Blade_low_Katana_0"
    }
  ],
  "samplers": [
    {
      "magFilter": 9729,
      "minFilter": 9987,
      "wrapS": 10497,
      "wrapT": 10497
    }
  ],
  "scene": 0,
  "scenes": [
    {
      "name": "Sketchfab_Scene",
      "nodes": [
        0
      ]
    }
  ],
  "textures": [
    {
      "sampler": 0,
      "source": 0
    },
    {
      "sampler": 0,
      "source": 1
    },
    {
      "sampler": 0,
      "source": 2
    },
    {
      "sampler": 0,
      "source": 3
    }
  ]
}
