{
  "accessors": [
    {
      "bufferView": 3,
      "componentType": 5126,
      "count": 20273,
      "max": [
        4.6330790519714355,
        9.916841506958008,
        6.633889198303223
      ],
      "min": [
        -4.672149658203125,
        -0.04686403647065163,
        -1.2003673315048218
      ],
      "type": "VEC3"
    },
    {
      "bufferView": 3,
      "byteOffset": 243276,
      "componentType": 5126,
      "count": 20273,
      "max": [
        0.9999877214431763,
        0.9999997615814209,
        0.9998821020126343
      ],
      "min": [
        -0.9999175071716309,
        -0.9999999403953552,
        -0.9998079538345337
      ],
      "type": "VEC3"
    },
    {
      "bufferView": 4,
      "componentType": 5126,
      "count": 20273,
      "max": [
        0.9993987679481506,
        0.9999802708625793,
        0.9998328685760498,
        1.0
      ],
      "min": [
        -0.9997201561927795,
        -0.999972939491272,
        -0.9999624490737915,
        -1.0
      ],
      "type": "VEC4"
    },
    {
      "bufferView": 2,
      "componentType": 5126,
      "count": 20273,
      "max": [
        0.9999989867210388,
        1.0
      ],
      "min": [
        0.0,
        0.14940500259399414
      ],
      "type": "VEC2"
    },
    {
      "bufferView": 1,
      "componentType": 5125,
      "count": 115038,
      "type": "SCALAR"
    },
    {
      "bufferView": 5,
      "componentType": 5126,
      "count": 29,
      "max": [
        1.0000001192092896,
        1.000000238418579,
        0.9183204174041748,
        0.0,
        0.7494435906410217,
        1.0,
        1.000000238418579,
        0.0,
        1.000000238418579,
        0.9999997615814209,
        1.0,
        0.0,
        5.362608909606934,
        4.728947639465332,
        8.656834602355957,
        1.0
      ],
      "min": [
        -1.0,
        -0.9999997615814209,
        -0.8550185561180115,
        0.0,
        -0.7494422793388367,
        -0.8928882479667664,
        -0.9975587725639343,
        0.0,
        -0.9999998807907104,
        -0.6441535949707031,
        -0.8928878307342529,
        0.0,
        -5.362608909606934,
        -5.867900371551514,
        -7.332536220550537,
        1.0
      ],
      "type": "MAT4"
    },
    {
      "bufferView": 0,
      "componentType": 5123,
      "count": 20273,
      "type": "VEC4"
    },
    {
      "bufferView": 4,
      "byteOffset": 324368,
      "componentType": 5126,
      "count": 20273,
      "max": [
        1.0,
        0.49994999170303345,
        0.3286474347114563,
        0.0
      ],
      "min": [
        0.34083300828933716,
        0.0,
        0.0,
        0.0
      ],
      "type": "VEC4"
    }
  ],
  "asset": {
    "extras": {
      "author": "That one larry (https://sketchfab.com/Professor_E12)",
      "license": "CC-BY-4.0 (http://creativecommons.org/licenses/by/4.0/)",
      "source": "https://sketchfab.com/3d-models/tung-tung-tung-sahur-phase-2-d03fce6179874856b0409d31c72ede13",
      "title": "Tung Tung Tung Sahur Phase 2"
    },
    "generator": "Sketchfab-16.68.0",
    "version": "2.0"
  },
  "bufferViews": [
    {
      "buffer": 0,
      "byteLength": 162184,
      "byteStride": 8,
      "name": "shortBufferViews",
      "target": 34962
    },
    {
      "buffer": 0,
      "byteLength": 460152,
      "byteOffset": 162184,
      "name": "floatBufferViews",
      "target": 34963
    },
    {
      "buffer": 0,
      "byteLength": 162184,
      "byteOffset": 622336,
      "byteStride": 8,
      "name": "floatBufferViews",
      "target": 34962
    },
    {
      "buffer": 0,
      "byteLength": 486552,
      "byteOffset": 784520,
      "byteStride": 12,
      "name": "floatBufferViews",
      "target": 34962
    },
    {
      "buffer": 0,
      "byteLength": 648736,
      "byteOffset": 1271072,
      "byteStride": 16,
      "name": "floatBufferViews",
      "target": 34962
    },
    {
      "buffer": 0,
      "byteLength": 1856,
      "byteOffset": 1919808,
      "name": "floatBufferViews"
    }
  ],
  "buffers": [
    {
      "byteLength": 1921664,
      "uri": "scene.bin"
    }
  ],
  "extensionsUsed": [
    "KHR_materials_specular"
  ],
  "images": [
    {
      "uri": "textures/tungtung_baseColor.png"
    },
    {
      "uri": "textures/tungtung_normal.png"
    },
    {
      "uri": "textures/tungtung_specularf0.png"
    }
  ],
  "materials": [
    {
      "doubleSided": true,
      "extensions": {
        "KHR_materials_specular": {
          "specularColorFactor": [
            1.0,
            1.0,
            1.0
          ],
          "specularFactor": 1.0,
          "specularTexture": {
            "index": 2
          }
        }
      },
      "name": "tungtung",
      "normalTexture": {
        "index": 1
      },
      "pbrMetallicRoughness": {
        "baseColorTexture": {
          "index": 0
        },
        "metallicFactor": 0.0,
        "roughnessFactor": 0.5
      }
    }
  ],
  "meshes": [
    {
      "name": "Object_0",
      "primitives": [
        {
          "attributes": {
            "JOINTS_0": 6,
            "NORMAL": 1,
            "POSITION": 0,
            "TANGENT": 2,
            "TEXCOORD_0": 3,
            "TEXCOORD_1": 3,
            "WEIGHTS_0": 7
          },
          "indices": 4,
          "material": 0,
          "mode": 4
        }
      ]
    }
  ],
  "nodes": [
    {
      "children": [
        1
      ],
      "matrix": [
        1.0,
        0.0,
        0.0,
        0.0,
        0.0,
        2.220446049250313e-16,
        -1.0,
        0.0,
        0.0,
        1.0,
        2.220446049250313e-16,
        0.0,
        0.0,
        0.0,
        0.0,
        1.0
      ],
      "name": "Sketchfab_model"
    },
    {
      "children": [
        2
      ],
      "name": "root"
    },
    {
      "children": [
        3
      ],
      "matrix": [
        1.0,
        0.0,
        0.0,
        0.0,
        0.0,
        2.220446049250313e-16,
        1.0,
        0.0,
        0.0,
        -1.0,
        2.220446049250313e-16,
        0.0,
        0.0,
        0.0,
        0.0,
        1.0
      ],
      "name": "GLTF_SceneRootNode"
    },
    {
      "children": [
        4
      ],
      "name": "TUNGTUNG_SAHUR_PHASE_25_ARM_29"
    },
    {
      "children": [
        5,
        7,
        6
      ],
      "name": "GLTF_created_0"
    },
    {
      "children": [
        8
      ],
      "name": "GLTF_created_0_rootJoint"
    },
    {
      "name": "TungTung_Phase2_28"
    },
    {
      "mesh": 0,
      "name": "Object_7",
      "skin": 0
    },
    {
      "children": [
        9,
        24,
        25,
        26,
        31
      ],
      "name": "spine_27",
      "rotation": [
        -0.09294915199279785,
        0.0,
        0.0,
        0.9956709742546082
      ],
      "translation": [
        0.0,
        3.3213391304016113,
        -0.22878700494766235
      ]
    },
    {
      "children": [
        10
      ],
      "name": "spine.001_14",
      "rotation": [
        0.2188868522644043,
        0.0,
        0.0,
        0.9757502675056458
      ],
      "translation": [
        0.0,
        0.9585710167884827,
        8.940696716308594e-08
      ]
    },
    {
      "children": [
        11,
        16,
        20,
        21,
        22
      ],
      "name": "spine.002_13",
      "rotation": [
        -0.13223451375961304,
        0.0,
        0.0,
        0.9912185072898865
      ],
      "scale": [
        1.0,
        0.9999999403953552,
        0.9999999403953552
      ],
      "translation": [
        0.0,
        1.602725863456726,
        -8.137430995702744e-07
      ]
    },
    {
      "children": [
        12
      ],
      "name": "shoulder.L_4",
      "rotation": [
        -0.6109569072723389,
        -0.34926384687423706,
        -0.3527979850769043,
        0.6166684627532959
      ],
      "scale": [
        0.9999998211860657,
        0.9999997615814209,
        0.9999999403953552
      ],
      "translation": [
        0.5351473689079285,
        1.509458303451538,
        0.9267042279243469
      ]
    },
    {
      "children": [
        13
      ],
      "name": "upper_arm.L_3",
      "rotation": [
        -0.4092080295085907,
        -0.23407460749149323,
        0.14593325555324554,
        0.8697478771209717
      ],
      "scale": [
        0.9999999403953552,
        1.0,
        0.9999999403953552
      ],
      "translation": [
        0.4251513183116913,
        1.8429226875305176,
        0.07787136733531952
      ]
    },
    {
      "children": [
        14
      ],
      "name": "forearm.L_2",
      "rotation": [
        -0.4198494553565979,
        -0.11041442304849625,
        -0.07784198969602585,
        0.8974829912185669
      ],
      "scale": [
        0.9999999403953552,
        0.9999998807907104,
        0.9999999403953552
      ],
      "translation": [
        2.5033950805664063e-06,
        2.246377944946289,
        1.5079975128173828e-05
      ]
    },
    {
      "children": [
        15
      ],
      "name": "hand.L_1",
      "rotation": [
        -0.01680641435086727,
        -0.2992575168609619,
        0.1877465546131134,
        0.9353682398796082
      ],
      "scale": [
        1.0,
        0.9999998807907104,
        1.0
      ],
      "translation": [
        -2.7120113372802734e-06,
        1.6092861890792847,
        -9.79006290435791e-06
      ]
    },
    {
      "name": "forearm.L.002_0",
      "rotation": [
        0.35348981618881226,
        -0.8070746660232544,
        0.47294357419013977,
        3.8126465824461775e-06
      ],
      "scale": [
        1.0,
        0.9999998807907104,
        1.0000001192092896
      ],
      "translation": [
        0.1919010877609253,
        0.47156256437301636,
        0.557830274105072
      ]
    },
    {
      "children": [
        17
      ],
      "name": "shoulder.R_8",
      "rotation": [
        -0.6109569072723389,
        0.34926384687423706,
        0.3527979850769043,
        0.6166684627532959
      ],
      "scale": [
        0.9999998211860657,
        0.9999997615814209,
        0.9999999403953552
      ],
      "translation": [
        -0.5351473689079285,
        1.509458303451538,
        0.9267042279243469
      ]
    },
    {
      "children": [
        18
      ],
      "name": "upper_arm.R_7",
      "rotation": [
        -0.4092080295085907,
        0.23407460749149323,
        -0.14593325555324554,
        0.8697478771209717
      ],
      "scale": [
        0.9999999403953552,
        1.0,
        0.9999999403953552
      ],
      "translation": [
        -0.4251513183116913,
        1.8429226875305176,
        0.07787136733531952
      ]
    },
    {
      "children": [
        19
      ],
      "name": "forearm.R_6",
      "rotation": [
        -0.4198494553565979,
        0.11041442304849625,
        0.07784198969602585,
        0.8974829912185669
      ],
      "scale": [
        0.9999999403953552,
        0.9999998807907104,
        0.9999999403953552
      ],
      "translation": [
        -2.5033950805664063e-06,
        2.246377944946289,
        1.5079975128173828e-05
      ]
    },
    {
      "name": "hand.R_5",
      "rotation": [
        -0.01680641435086727,
        0.2992575168609619,
        -0.1877465546131134,
        0.9353682398796082
      ],
      "scale": [
        1.0,
        0.9999998807907104,
        1.0
      ],
      "translation": [
        2.7120113372802734e-06,
        1.6092861890792847,
        -9.79006290435791e-06
      ]
    },
    {
      "name": "breast.L_9",
      "rotation": [
        1.3836994128268998e-07,
        0.703539252281189,
        0.7106564044952393,
        1.3698415557428234e-07
      ],
      "scale": [
        1.0,
        1.000000238418579,
        1.0
      ],
      "translation": [
        1.076908826828003,
        0.7468186020851135,
        -0.6714667081832886
      ]
    },
    {
      "name": "breast.R_10",
      "rotation": [
        1.3836994128268998e-07,
        0.703539252281189,
        0.7106564044952393,
        1.3698415557428234e-07
      ],
      "scale": [
        1.0,
        1.000000238418579,
        1.0
      ],
      "translation": [
        -1.076908826828003,
        0.7468186020851135,
        -0.6714667081832886
      ]
    },
    {
      "children": [
        23
      ],
      "name": "spine.004_12",
      "rotation": [
        0.4199472963809967,
        0.0,
        0.0,
        0.9075484871864319
      ],
      "translation": [
        0.0,
        2.104330539703369,
        0.9172582626342773
      ]
    },
    {
      "name": "spine.005_11",
      "rotation": [
        0.42490848898887634,
        0.0,
        0.0,
        0.9052363038063049
      ],
      "scale": [
        1.0,
        0.9999998211860657,
        0.9999998807907104
      ],
      "translation": [
        0.0,
        0.8961600065231323,
        -4.887580871582031e-06
      ]
    },
    {
      "name": "pelvis.L_15",
      "rotation": [
        0.13915304839611053,
        -0.35774022340774536,
        -0.43140965700149536,
        0.8164215087890625
      ],
      "translation": [
        0.0,
        3.725290298461914e-08,
        1.4901161193847656e-08
      ]
    },
    {
      "name": "pelvis.R_16",
      "rotation": [
        0.13915304839611053,
        0.35774022340774536,
        0.43140965700149536,
        0.8164215087890625
      ],
      "translation": [
        0.0,
        3.725290298461914e-08,
        1.4901161193847656e-08
      ]
    },
    {
      "children": [
        27
      ],
      "name": "thigh.L_21",
      "rotation": [
        -0.7641621828079224,
        -0.22864043712615967,
        -0.6030955910682678,
        0.0074468739330768585
      ],
      "scale": [
        0.9999998211860657,
        0.9999999403953552,
        0.9999998807907104
      ],
      "translation": [
        0.6334668397903442,
        0.41143086552619934,
        0.32375261187553406
      ]
    },
    {
      "children": [
        28
      ],
      "name": "shin.L_20",
      "rotation": [
        0.2694576382637024,
        -0.2703530490398407,
        0.4753999412059784,
        0.7926517128944397
      ],
      "scale": [
        0.9999999403953552,
        0.9999999403953552,
        0.9999998807907104
      ],
      "translation": [
        -2.086162567138672e-07,
        1.9094536304473877,
        5.066394805908203e-07
      ]
    },
    {
      "children": [
        29,
        30
      ],
      "name": "foot.L_19",
      "rotation": [
        -0.5806925892829895,
        0.006905815098434687,
        -0.47539350390434265,
        0.6608702540397644
      ],
      "scale": [
        0.9999999403953552,
        0.9999998807907104,
        0.9999999403953552
      ],
      "translation": [
        -1.9818544387817383e-06,
        2.132530927658081,
        4.798173904418945e-06
      ]
    },
    {
      "name": "toe.L_17",
      "rotation": [
        -0.2610031068325043,
        -0.4411528706550598,
        0.015414577908813953,
        0.8585010170936584
      ],
      "translation": [
        1.3597309589385986e-06,
        0.7782089710235596,
        -3.520399332046509e-06
      ]
    },
    {
      "name": "heel.02.L_18",
      "rotation": [
        0.6002253890037537,
        0.6002260446548462,
        0.10649457573890686,
        0.5178003311157227
      ],
      "scale": [
        0.9999999403953552,
        0.9999998807907104,
        1.0
      ],
      "translation": [
        -0.20812830328941345,
        0.06490671634674072,
        0.20371423661708832
      ]
    },
    {
      "children": [
        32
      ],
      "name": "thigh.R_26",
      "rotation": [
        -0.7978709936141968,
        0.2612616717815399,
        0.5428468585014343,
        0.021482255309820175
      ],
      "scale": [
        1.000000238418579,
        1.0000001192092896,
        1.0000001192092896
      ],
      "translation": [
        -0.6334668397903442,
        0.41143086552619934,
        0.32375261187553406
      ]
    },
    {
      "children": [
        33
      ],
      "name": "shin.R_25",
      "rotation": [
        0.26945698261260986,
        0.270354300737381,
        -0.47539883852005005,
        0.7926521897315979
      ],
      "scale": [
        1.0000001192092896,
        1.0000001192092896,
        1.0000001192092896
      ],
      "translation": [
        6.854534149169922e-07,
        1.909454584121704,
        4.76837158203125e-07
      ]
    },
    {
      "children": [
        34,
        35
      ],
      "name": "foot.R_24",
      "rotation": [
        -0.5927634835243225,
        -0.08081396669149399,
        0.4549620747566223,
        0.6596287488937378
      ],
      "translation": [
        5.11854887008667e-06,
        2.1325297355651855,
        -1.1026859283447266e-06
      ]
    },
    {
      "name": "toe.R_22",
      "rotation": [
        -0.2609972655773163,
        0.441211998462677,
        -0.015435745939612389,
        0.8584719896316528
      ],
      "scale": [
        1.0,
        1.0,
        0.9999999403953552
      ],
      "translation": [
        3.201887011528015e-06,
        0.77820885181427,
        3.5017728805541992e-06
      ]
    },
    {
      "name": "heel.02.R_23",
      "rotation": [
        0.6002264618873596,
        -0.600226640701294,
        -0.10649928450584412,
        0.5177973508834839
      ],
      "scale": [
        0.9999999403953552,
        0.9999998211860657,
        0.9999998211860657
      ],
      "translation": [
        0.20812800526618958,
        0.06490333378314972,
        0.2037143111228943
      ]
    }
  ],
  "samplers": [
    {
      "magFilter": 9729,
      "minFilter": 9987,
      "wrapS": 10497,
      "wrapT": 10497
    }
  ],
  "scene": 0,
  "scenes": [
    {
      "name": "Sketchfab_Scene",
      "nodes": [
        0
      ]
    }
  ],
  "skins": [
    {
      "inverseBindMatrices": 5,
      "joints": [
        5,
        8,
        9,
        10,
        11,
        12,
        13,
        14,
        15,
        16,
        17,
        18,
        19,
        20,
        21,
        22,
        23,
        24,
        25,
        26,
        27,
        28,
        29,
        30,
        31,
        32,
        33,
        34,
        35
      ],
      "skeleton": 5
    }
  ],
  "textures": [
    {
      "sampler": 0,
      "source": 0
    },
    {
      "sampler": 0,
      "source": 1
    },
    {
      "sampler": 0,
      "source": 2
    }
  ]
}
