{
  "accessors": [
    {
      "bufferView": 2,
      "componentType": 5126,
      "count": 7384,
      "max": [
        0.873200535774231,
        0.5833655595779419,
        1.4532454013824463
      ],
      "min": [
        -0.8608378171920776,
        -0.3294414281845093,
        -0.004350066184997559
      ],
      "type": "VEC3"
    },
    {
      "bufferView": 2,
      "byteOffset": 88608,
      "componentType": 5126,
      "count": 7384,
      "max": [
        0.9999475479125977,
        0.9996998906135559,
        0.9998854994773865
      ],
      "min": [
        -0.9998244047164917,
        -0.9999433159828186,
        -0.9999946355819702
      ],
      "type": "VEC3"
    },
    {
      "bufferView": 3,
      "componentType": 5126,
      "count": 7384,
      "max": [
        0.9998669624328613,
        0.999980092048645,
        0.9999944567680359,
        1.0
      ],
      "min": [
        -0.9999322891235352,
        -0.9998965859413147,
        -0.9998900294303894,
        -1.0
      ],
      "type": "VEC4"
    },
    {
      "bufferView": 1,
      "componentType": 5126,
      "count": 7384,
      "max": [
        0.9984179139137268,
        0.9984996318817139
      ],
      "min": [
        0.00150086369831115,
        0.001495600095950067
      ],
      "type": "VEC2"
    },
    {
      "bufferView": 1,
      "byteOffset": 59072,
      "componentType": 5126,
      "count": 7384,
      "max": [
        0.9984179139137268,
        0.9984996318817139
      ],
      "min": [
        0.00150086369831115,
        0.001495600095950067
      ],
      "type": "VEC2"
    },
    {
      "bufferView": 1,
      "byteOffset": 118144,
      "componentType": 5126,
      "count": 7384,
      "max": [
        0.9984179139137268,
        0.9984996318817139
      ],
      "min": [
        0.00150086369831115,
        0.001495600095950067
      ],
      "type": "VEC2"
    },
    {
      "bufferView": 0,
      "componentType": 5125,
      "count": 34632,
      "type": "SCALAR"
    },
    {
      "bufferView": 2,
      "byteOffset": 177216,
      "componentType": 5126,
      "count": 688,
      "max": [
        0.11890798807144165,
        0.05971011519432068,
        1.3863204717636108
      ],
      "min": [
        -0.13908880949020386,
        -0.2081691473722458,
        1.274308443069458
      ],
      "type": "VEC3"
    },
    {
      "bufferView": 2,
      "byteOffset": 185472,
      "componentType": 5126,
      "count": 688,
      "max": [
        0.9983512163162231,
        0.9943366050720215,
        0.9634907245635986
      ],
      "min": [
        -0.9650943279266357,
        -0.9628333449363708,
        -0.939958930015564
      ],
      "type": "VEC3"
    },
    {
      "bufferView": 1,
      "byteOffset": 177216,
      "componentType": 5126,
      "count": 688,
      "max": [
        0.9983474016189575,
        0.36680278182029724
      ],
      "min": [
        0.0015565156936645508,
        0.0015066649066284299
      ],
      "type": "VEC2"
    },
    {
      "bufferView": 0,
      "byteOffset": 138528,
      "componentType": 5125,
      "count": 2148,
      "type": "SCALAR"
    },
    {
      "bufferView": 2,
      "byteOffset": 193728,
      "componentType": 5126,
      "count": 5795,
      "max": [
        0.07387988269329071,
        0.0576711967587471,
        0.012024307623505592
      ],
      "min": [
        -0.07389809936285019,
        -0.019763309508562088,
        -0.06638885289430618
      ],
      "type": "VEC3"
    },
    {
      "bufferView": 2,
      "byteOffset": 263268,
      "componentType": 5126,
      "count": 5795,
      "max": [
        1.0,
        1.0,
        1.0
      ],
      "min": [
        -1.0,
        -1.0,
        -1.0
      ],
      "type": "VEC3"
    },
    {
      "bufferView": 1,
      "byteOffset": 182720,
      "componentType": 5126,
      "count": 5795,
      "max": [
        0.9992851614952087,
        0.9569718837738037
      ],
      "min": [
        0.0004836976295337081,
        0.0004784571938216686
      ],
      "type": "VEC2"
    },
    {
      "bufferView": 1,
      "byteOffset": 229080,
      "componentType": 5126,
      "count": 5795,
      "max": [
        0.9992851614952087,
        0.9569718837738037
      ],
      "min": [
        0.0004836976295337081,
        0.0004784571938216686
      ],
      "type": "VEC2"
    },
    {
      "bufferView": 1,
      "byteOffset": 275440,
      "componentType": 5126,
      "count": 5795,
      "max": [
        0.9992851614952087,
        0.9569718837738037
      ],
      "min": [
        0.0004836976295337081,
        0.0004784571938216686
      ],
      "type": "VEC2"
    },
    {
      "bufferView": 0,
      "byteOffset": 147120,
      "componentType": 5125,
      "count": 20736,
      "type": "SCALAR"
    }
  ],
  "asset": {
    "extras": {
      "author": "Alex CGW (https://sketchfab.com/alex.cgwarrior)",
      "license": "CC-BY-4.0 (http://creativecommons.org/licenses/by/4.0/)",
      "source": "https://sketchfab.com/3d-models/shpioniro-golubiro-game-3d-model-free-download-f503749e40a44321bee4c46c00c759d9",
      "title": "SHPIONIRO GOLUBIRO Game 3D model Free download"
    },
    "generator": "Sketchfab-16.65.0",
    "version": "2.0"
  },
  "bufferViews": [
    {
      "buffer": 0,
      "byteLength": 230064,
      "name": "floatBufferViews",
      "target": 34963
    },
    {
      "buffer": 0,
      "byteLength": 321800,
      "byteOffset": 230064,
      "byteStride": 8,
      "name": "floatBufferViews",
      "target": 34962
    },
    {
      "buffer": 0,
      "byteLength": 332808,
      "byteOffset": 551864,
      "byteStride": 12,
      "name": "floatBufferViews",
      "target": 34962
    },
    {
      "buffer": 0,
      "byteLength": 118144,
      "byteOffset": 884672,
      "byteStride": 16,
      "name": "floatBufferViews",
      "target": 34962
    }
  ],
  "buffers": [
    {
      "byteLength": 1002816,
      "uri": "scene.bin"
    }
  ],
  "images": [
    {
      "uri": "textures/Shpioniro_baseColor.png"
    },
    {
      "uri": "textures/Shpioniro_metallicRoughness.png"
    },
    {
      "uri": "textures/Shpioniro_normal.png"
    },
    {
      "uri": "textures/FED2_baseColor.png"
    },
    {
      "uri": "textures/FED2_metallicRoughness.png"
    }
  ],
  "materials": [
    {
      "doubleSided": true,
      "name": "Shpioniro",
      "normalTexture": {
        "index": 2
      },
      "occlusionTexture": {
        "index": 1
      },
      "pbrMetallicRoughness": {
        "baseColorTexture": {
          "index": 0
        },
        "metallicFactor": 0.0,
        "metallicRoughnessTexture": {
          "index": 1
        }
      }
    },
    {
      "doubleSided": true,
      "name": "Glass",
      "pbrMetallicRoughness": {
        "baseColorFactor": [
          0.0159948,
          0.0159948,
          0.0159948,
          1.0
        ],
        "metallicFactor": 0.0,
        "roughnessFactor": 0.0
      }
    },
    {
      "doubleSided": true,
      "name": "FED2",
      "pbrMetallicRoughness": {
        "baseColorTexture": {
          "index": 3
        },
        "metallicRoughnessTexture": {
          "index": 4
        }
      }
    }
  ],
  "meshes": [
    {
      "name": "Shioniri_Shpioniro_0",
      "primitives": [
        {
          "attributes": {
            "NORMAL": 1,
            "POSITION": 0,
            "TANGENT": 2,
            "TEXCOORD_0": 3,
            "TEXCOORD_1": 4,
            "TEXCOORD_2": 5
          },
          "indices": 6,
          "material": 0,
          "mode": 4
        }
      ]
    },
    {
      "name": "Shioniri_Glass_0",
      "primitives": [
        {
          "attributes": {
            "NORMAL": 8,
            "POSITION": 7,
            "TEXCOORD_0": 9
          },
          "indices": 10,
          "material": 1,
          "mode": 4
        }
      ]
    },
    {
      "name": "Camera_FED2_0",
      "primitives": [
        {
          "attributes": {
            "NORMAL": 12,
            "POSITION": 11,
            "TEXCOORD_0": 13,
            "TEXCOORD_1": 14,
            "TEXCOORD_2": 15
          },
          "indices": 16,
          "material": 2,
          "mode": 4
        }
      ]
    }
  ],
  "nodes": [
    {
      "children": [
        1
      ],
      "matrix": [
        1.0,
        0.0,
        0.0,
        0.0,
        0.0,
        2.220446049250313e-16,
        -1.0,
        0.0,
        0.0,
        1.0,
        2.220446049250313e-16,
        0.0,
        0.0,
        0.0,
        0.0,
        1.0
      ],
      "name": "Sketchfab_model"
    },
    {
      "children": [
        2
      ],
      "matrix": [
        0.009999999776482582,
        0.0,
        0.0,
        0.0,
        0.0,
        0.0,
        0.009999999776482582,
        0.0,
        0.0,
        -0.009999999776482582,
        0.0,
        0.0,
        0.0,
        0.0,
        0.0,
        1.0
      ],
      "name": "f6466fbd5cf7451aaea0fa6a40c11b62.fbx"
    },
    {
      "children": [
        3,
        6
      ],
      "name": "RootNode"
    },
    {
      "children": [
        4,
        5
      ],
      "matrix": [
        100.0,
        0.0,
        0.0,
        0.0,
        0.0,
        -1.629206793918314e-05,
        -99.99999999999868,
        0.0,
        0.0,
        99.99999999999868,
        -1.629206793918314e-05,
        0.0,
        0.0,
        0.0,
        0.0,
        1.0
      ],
      "name": "Shioniri"
    },
    {
      "mesh": 0,
      "name": "Shioniri_Shpioniro_0"
    },
    {
      "mesh": 1,
      "name": "Shioniri_Glass_0"
    },
    {
      "children": [
        7
      ],
      "matrix": [
        -188.9492340087747,
        1.869166561192954e-12,
        7.357954838887337e-05,
        0.0,
        7.35795483888733e-05,
        1.4265270340403646e-05,
        188.9492340087742,
        0.0,
        -3.6859347930414624e-12,
        188.9492340087885,
        -1.4265270319426067e-05,
        0.0,
        -0.3692764639854431,
        91.271728515625,
        31.452808380126953,
        1.0
      ],
      "name": "Camera"
    },
    {
      "mesh": 2,
      "name": "Camera_FED2_0"
    }
  ],
  "samplers": [
    {
      "magFilter": 9729,
      "minFilter": 9987,
      "wrapS": 10497,
      "wrapT": 10497
    }
  ],
  "scene": 0,
  "scenes": [
    {
      "name": "Sketchfab_Scene",
      "nodes": [
        0
      ]
    }
  ],
  "textures": [
    {
      "sampler": 0,
      "source": 0
    },
    {
      "sampler": 0,
      "source": 1
    },
    {
      "sampler": 0,
      "source": 2
    },
    {
      "sampler": 0,
      "source": 3
    },
    {
      "sampler": 0,
      "source": 4
    }
  ]
}
