{
  "accessors": [
    {
      "bufferView": 2,
      "componentType": 5126,
      "count": 4555,
      "max": [
        0.3403543531894684,
        -0.30048471689224243,
        1.6975440979003906
      ],
      "min": [
        -0.43045786023139954,
        -1.0882853269577026,
        1.0835801362991333
      ],
      "type": "VEC3"
    },
    {
      "bufferView": 2,
      "byteOffset": 54660,
      "componentType": 5126,
      "count": 4555,
      "max": [
        0.9989567399024963,
        0.9977211356163025,
        0.9997353553771973
      ],
      "min": [
        -0.9997758865356445,
        -0.9994655847549438,
        -0.9999938011169434
      ],
      "type": "VEC3"
    },
    {
      "bufferView": 3,
      "componentType": 5126,
      "count": 4555,
      "max": [
        0.9973067045211792,
        1.0,
        0.9994703531265259,
        1.0
      ],
      "min": [
        -0.9999421238899231,
        -0.9988642334938049,
        -0.9998821020126343,
        -1.0
      ],
      "type": "VEC4"
    },
    {
      "bufferView": 1,
      "componentType": 5126,
      "count": 4555,
      "max": [
        0.9597632884979248,
        0.9837218523025513
      ],
      "min": [
        0.47706347703933716,
        0.0054390584118664265
      ],
      "type": "VEC2"
    },
    {
      "bufferView": 1,
      "byteOffset": 36440,
      "componentType": 5126,
      "count": 4555,
      "max": [
        0.682279646396637,
        0.983401894569397
      ],
      "min": [
        0.14777499437332153,
        0.7270029783248901
      ],
      "type": "VEC2"
    },
    {
      "bufferView": 1,
      "byteOffset": 72880,
      "componentType": 5126,
      "count": 4555,
      "max": [
        0.682279646396637,
        0.983401894569397
      ],
      "min": [
        0.14777499437332153,
        0.7270029783248901
      ],
      "type": "VEC2"
    },
    {
      "bufferView": 1,
      "byteOffset": 109320,
      "componentType": 5126,
      "count": 4555,
      "max": [
        0.682279646396637,
        0.983401894569397
      ],
      "min": [
        0.14777499437332153,
        0.7270029783248901
      ],
      "type": "VEC2"
    },
    {
      "bufferView": 1,
      "byteOffset": 145760,
      "componentType": 5126,
      "count": 4555,
      "max": [
        0.682279646396637,
        0.983401894569397
      ],
      "min": [
        0.14777499437332153,
        0.7270029783248901
      ],
      "type": "VEC2"
    },
    {
      "bufferView": 1,
      "byteOffset": 182200,
      "componentType": 5126,
      "count": 4555,
      "max": [
        0.682279646396637,
        0.983401894569397
      ],
      "min": [
        0.14777499437332153,
        0.7270029783248901
      ],
      "type": "VEC2"
    },
    {
      "bufferView": 1,
      "byteOffset": 218640,
      "componentType": 5126,
      "count": 4555,
      "max": [
        0.682279646396637,
        0.983401894569397
      ],
      "min": [
        0.14777499437332153,
        0.7270029783248901
      ],
      "type": "VEC2"
    },
    {
      "bufferView": 1,
      "byteOffset": 255080,
      "componentType": 5126,
      "count": 4555,
      "max": [
        0.682279646396637,
        0.983401894569397
      ],
      "min": [
        0.14777499437332153,
        0.7270029783248901
      ],
      "type": "VEC2"
    },
    {
      "bufferView": 0,
      "componentType": 5125,
      "count": 25851,
      "type": "SCALAR"
    },
    {
      "bufferView": 2,
      "byteOffset": 109320,
      "componentType": 5126,
      "count": 1649,
      "max": [
        0.6243432760238647,
        0.7365691065788269,
        1.867646336555481
      ],
      "min": [
        -0.6241902709007263,
        -0.5116746425628662,
        0.6806555986404419
      ],
      "type": "VEC3"
    },
    {
      "bufferView": 2,
      "byteOffset": 129108,
      "componentType": 5126,
      "count": 1649,
      "max": [
        0.9989410042762756,
        0.99895840883255,
        0.9986202716827393
      ],
      "min": [
        -0.9989849328994751,
        -0.9989411234855652,
        -0.9986212253570557
      ],
      "type": "VEC3"
    },
    {
      "bufferView": 3,
      "byteOffset": 72880,
      "componentType": 5126,
      "count": 1649,
      "max": [
        0.7131173014640808,
        0.9999738931655884,
        0.672545313835144,
        1.0
      ],
      "min": [
        -0.9999693036079407,
        -0.999986469745636,
        -0.6746501922607422,
        1.0
      ],
      "type": "VEC4"
    },
    {
      "bufferView": 1,
      "byteOffset": 291520,
      "componentType": 5126,
      "count": 1649,
      "max": [
        0.6708040833473206,
        0.9850142002105713
      ],
      "min": [
        0.00820100400596857,
        0.1038619875907898
      ],
      "type": "VEC2"
    },
    {
      "bufferView": 0,
      "byteOffset": 103404,
      "componentType": 5125,
      "count": 9216,
      "type": "SCALAR"
    },
    {
      "bufferView": 2,
      "byteOffset": 148896,
      "componentType": 5126,
      "count": 162,
      "max": [
        0.4631029963493347,
        0.31555312871932983,
        0.838178277015686
      ],
      "min": [
        -0.4631029963493347,
        0.18235185742378235,
        0.46472543478012085
      ],
      "type": "VEC3"
    },
    {
      "bufferView": 2,
      "byteOffset": 150840,
      "componentType": 5126,
      "count": 162,
      "max": [
        0.9993439316749573,
        0.9994404315948486,
        0.4891614317893982
      ],
      "min": [
        -0.9993438720703125,
        -0.9999035000801086,
        -0.4117653965950012
      ],
      "type": "VEC3"
    },
    {
      "bufferView": 3,
      "byteOffset": 99264,
      "componentType": 5126,
      "count": 162,
      "max": [
        0.9999985694885254,
        0.9998934864997864,
        0.22795948386192322,
        1.0
      ],
      "min": [
        -0.9999986290931702,
        -0.9998371005058289,
        -0.16278527677059174,
        -1.0
      ],
      "type": "VEC4"
    },
    {
      "bufferView": 1,
      "byteOffset": 304712,
      "componentType": 5126,
      "count": 162,
      "max": [
        1.5430388450622559,
        0.3122140169143677
      ],
      "min": [
        0.500883162021637,
        0.2625550627708435
      ],
      "type": "VEC2"
    },
    {
      "bufferView": 0,
      "byteOffset": 140268,
      "componentType": 5125,
      "count": 768,
      "type": "SCALAR"
    },
    {
      "bufferView": 2,
      "byteOffset": 152784,
      "componentType": 5126,
      "count": 520,
      "max": [
        0.6323578357696533,
        0.5780476331710815,
        0.5710505843162537
      ],
      "min": [
        -0.6323578357696533,
        -0.0869680792093277,
        0.37744173407554626
      ],
      "type": "VEC3"
    },
    {
      "bufferView": 2,
      "byteOffset": 159024,
      "componentType": 5126,
      "count": 520,
      "max": [
        0.9999566078186035,
        0.9906384348869324,
        0.9916680455207825
      ],
      "min": [
        -0.9999566078186035,
        -0.9915501475334167,
        -0.991667628288269
      ],
      "type": "VEC3"
    },
    {
      "bufferView": 3,
      "byteOffset": 101856,
      "componentType": 5126,
      "count": 520,
      "max": [
        0.9960334300994873,
        0.988595187664032,
        0.992003321647644,
        1.0
      ],
      "min": [
        -0.9960333704948425,
        -0.12996405363082886,
        -0.9924274682998657,
        -1.0
      ],
      "type": "VEC4"
    },
    {
      "bufferView": 1,
      "byteOffset": 306008,
      "componentType": 5126,
      "count": 520,
      "max": [
        1.9863848686218262,
        0.4057275056838989
      ],
      "min": [
        0.3637597858905792,
        0.00544950133189559
      ],
      "type": "VEC2"
    },
    {
      "bufferView": 0,
      "byteOffset": 143340,
      "componentType": 5125,
      "count": 1512,
      "type": "SCALAR"
    },
    {
      "bufferView": 2,
      "byteOffset": 165264,
      "componentType": 5126,
      "count": 594,
      "max": [
        0.9471502900123596,
        0.9821971654891968,
        1.732730507850647
      ],
      "min": [
        -0.9837646484375,
        -0.778692364692688,
        0.8857171535491943
      ],
      "type": "VEC3"
    },
    {
      "bufferView": 2,
      "byteOffset": 172392,
      "componentType": 5126,
      "count": 594,
      "max": [
        0.7973074316978455,
        0.9491662979125977,
        0.9546382427215576
      ],
      "min": [
        -0.7973046898841858,
        -0.9491643309593201,
        -0.9546385407447815
      ],
      "type": "VEC3"
    },
    {
      "bufferView": 3,
      "byteOffset": 110176,
      "componentType": 5126,
      "count": 594,
      "max": [
        0.9975363612174988,
        0.9278514385223389,
        0.9321172833442688,
        -1.0
      ],
      "min": [
        -0.9901604652404785,
        -0.9501752257347107,
        -0.9538251757621765,
        -1.0
      ],
      "type": "VEC4"
    },
    {
      "bufferView": 1,
      "byteOffset": 310168,
      "componentType": 5126,
      "count": 594,
      "max": [
        0.9868335723876953,
        0.9945580959320068
      ],
      "min": [
        0.6795095205307007,
        0.4170006513595581
      ],
      "type": "VEC2"
    },
    {
      "bufferView": 0,
      "byteOffset": 149388,
      "componentType": 5125,
      "count": 3072,
      "type": "SCALAR"
    },
    {
      "bufferView": 2,
      "byteOffset": 179520,
      "componentType": 5126,
      "count": 624,
      "max": [
        0.21750891208648682,
        -0.4994014501571655,
        1.875602126121521
      ],
      "min": [
        -0.34348219633102417,
        -0.7956598401069641,
        1.4450280666351318
      ],
      "type": "VEC3"
    },
    {
      "bufferView": 2,
      "byteOffset": 187008,
      "componentType": 5126,
      "count": 624,
      "max": [
        0.9991462826728821,
        0.9926801919937134,
        0.9102524518966675
      ],
      "min": [
        -0.9987487196922302,
        -0.9973810315132141,
        -0.8024649024009705
      ],
      "type": "VEC3"
    },
    {
      "bufferView": 3,
      "byteOffset": 119680,
      "componentType": 5126,
      "count": 624,
      "max": [
        0.9566617608070374,
        0.9865900278091431,
        0.9705429673194885,
        1.0
      ],
      "min": [
        -0.9194391369819641,
        -0.9991828799247742,
        -0.8062778115272522,
        1.0
      ],
      "type": "VEC4"
    },
    {
      "bufferView": 1,
      "byteOffset": 314920,
      "componentType": 5126,
      "count": 624,
      "max": [
        0.6674402356147766,
        0.8894102573394775
      ],
      "min": [
        0.46833908557891846,
        0.005439282860606909
      ],
      "type": "VEC2"
    },
    {
      "bufferView": 1,
      "byteOffset": 319912,
      "componentType": 5126,
      "count": 624,
      "max": [
        0.9886868596076965,
        0.9817972779273987
      ],
      "min": [
        0.013032596558332443,
        0.861663281917572
      ],
      "type": "VEC2"
    },
    {
      "bufferView": 1,
      "byteOffset": 324904,
      "componentType": 5126,
      "count": 624,
      "max": [
        0.9886868596076965,
        0.9817972779273987
      ],
      "min": [
        0.013032596558332443,
        0.861663281917572
      ],
      "type": "VEC2"
    },
    {
      "bufferView": 1,
      "byteOffset": 329896,
      "componentType": 5126,
      "count": 624,
      "max": [
        0.9886868596076965,
        0.9817972779273987
      ],
      "min": [
        0.013032596558332443,
        0.861663281917572
      ],
      "type": "VEC2"
    },
    {
      "bufferView": 1,
      "byteOffset": 334888,
      "componentType": 5126,
      "count": 624,
      "max": [
        0.9886868596076965,
        0.9817972779273987
      ],
      "min": [
        0.013032596558332443,
        0.861663281917572
      ],
      "type": "VEC2"
    },
    {
      "bufferView": 1,
      "byteOffset": 339880,
      "componentType": 5126,
      "count": 624,
      "max": [
        0.9886868596076965,
        0.9817972779273987
      ],
      "min": [
        0.013032596558332443,
        0.861663281917572
      ],
      "type": "VEC2"
    },
    {
      "bufferView": 1,
      "byteOffset": 344872,
      "componentType": 5126,
      "count": 624,
      "max": [
        0.9886868596076965,
        0.9817972779273987
      ],
      "min": [
        0.013032596558332443,
        0.861663281917572
      ],
      "type": "VEC2"
    },
    {
      "bufferView": 1,
      "byteOffset": 349864,
      "componentType": 5126,
      "count": 624,
      "max": [
        0.9886868596076965,
        0.9817972779273987
      ],
      "min": [
        0.013032596558332443,
        0.861663281917572
      ],
      "type": "VEC2"
    },
    {
      "bufferView": 0,
      "byteOffset": 161676,
      "componentType": 5125,
      "count": 3360,
      "type": "SCALAR"
    },
    {
      "bufferView": 2,
      "byteOffset": 194496,
      "componentType": 5126,
      "count": 606,
      "max": [
        0.6809258460998535,
        0.547188401222229,
        0.46360599994659424
      ],
      "min": [
        -0.6809258460998535,
        -0.7873134613037109,
        -0.003164447844028473
      ],
      "type": "VEC3"
    },
    {
      "bufferView": 2,
      "byteOffset": 201768,
      "componentType": 5126,
      "count": 606,
      "max": [
        0.9993777275085449,
        0.9898923635482788,
        0.9988865256309509
      ],
      "min": [
        -0.9993777275085449,
        -0.9092373847961426,
        -0.9994356632232666
      ],
      "type": "VEC3"
    },
    {
      "bufferView": 3,
      "byteOffset": 129664,
      "componentType": 5126,
      "count": 606,
      "max": [
        0.992315411567688,
        0.9995838403701782,
        0.969402551651001,
        1.0
      ],
      "min": [
        -0.992315411567688,
        -0.8708717823028564,
        -0.7808801531791687,
        -1.0
      ],
      "type": "VEC4"
    },
    {
      "bufferView": 1,
      "byteOffset": 354856,
      "componentType": 5126,
      "count": 606,
      "max": [
        1.4727041721343994,
        0.9841820001602173
      ],
      "min": [
        0.007765859365463257,
        0.00813932716846466
      ],
      "type": "VEC2"
    },
    {
      "bufferView": 0,
      "byteOffset": 175116,
      "componentType": 5125,
      "count": 2940,
      "type": "SCALAR"
    }
  ],
  "asset": {
    "extras": {
      "author": "Alex CGW (https://sketchfab.com/alex.cgwarrior)",
      "license": "CC-BY-4.0 (http://creativecommons.org/licenses/by/4.0/)",
      "source": "https://sketchfab.com/3d-models/la-vaca-saturno-saturnito-3d-model-free-download-bade3628d28042e49303a9e2ba18dc7b",
      "title": "La Vaca Saturno Saturnito 3D Model Free Download"
    },
    "generator": "Sketchfab-16.67.0",
    "version": "2.0"
  },
  "bufferViews": [
    {
      "buffer": 0,
      "byteLength": 186876,
      "name": "floatBufferViews",
      "target": 34963
    },
    {
      "buffer": 0,
      "byteLength": 359704,
      "byteOffset": 186876,
      "byteStride": 8,
      "name": "floatBufferViews",
      "target": 34962
    },
    {
      "buffer": 0,
      "byteLength": 209040,
      "byteOffset": 546580,
      "byteStride": 12,
      "name": "floatBufferViews",
      "target": 34962
    },
    {
      "buffer": 0,
      "byteLength": 139360,
      "byteOffset": 755620,
      "byteStride": 16,
      "name": "floatBufferViews",
      "target": 34962
    }
  ],
  "buffers": [
    {
      "byteLength": 894980,
      "uri": "scene.bin"
    }
  ],
  "images": [
    {
      "uri": "textures/La_Vaca_baseColor.png"
    },
    {
      "uri": "textures/La_Vaca_metallicRoughness.png"
    },
    {
      "uri": "textures/La_Vaca_normal.png"
    }
  ],
  "materials": [
    {
      "doubleSided": true,
      "name": "La_Vaca",
      "normalTexture": {
        "index": 2
      },
      "occlusionTexture": {
        "index": 1
      },
      "pbrMetallicRoughness": {
        "baseColorTexture": {
          "index": 0
        },
        "metallicFactor": 0.0,
        "metallicRoughnessTexture": {
          "index": 1
        },
        "roughnessFactor": 0.5287635162316685
      }
    }
  ],
  "meshes": [
    {
      "name": "mesh_0.001_La Vaca_0",
      "primitives": [
        {
          "attributes": {
            "NORMAL": 1,
            "POSITION": 0,
            "TANGENT": 2,
            "TEXCOORD_0": 3,
            "TEXCOORD_1": 4,
            "TEXCOORD_2": 5,
            "TEXCOORD_3": 6,
            "TEXCOORD_4": 7,
            "TEXCOORD_5": 8,
            "TEXCOORD_6": 9,
            "TEXCOORD_7": 10
          },
          "indices": 11,
          "material": 0,
          "mode": 4
        }
      ]
    },
    {
      "name": "Cube.001_La Vaca_0",
      "primitives": [
        {
          "attributes": {
            "NORMAL": 13,
            "POSITION": 12,
            "TANGENT": 14,
            "TEXCOORD_0": 15
          },
          "indices": 16,
          "material": 0,
          "mode": 4
        }
      ]
    },
    {
      "name": "Cube.002_La Vaca_0",
      "primitives": [
        {
          "attributes": {
            "NORMAL": 18,
            "POSITION": 17,
            "TANGENT": 19,
            "TEXCOORD_0": 20
          },
          "indices": 21,
          "material": 0,
          "mode": 4
        }
      ]
    },
    {
      "name": "Cylinder.001_La Vaca_0",
      "primitives": [
        {
          "attributes": {
            "NORMAL": 23,
            "POSITION": 22,
            "TANGENT": 24,
            "TEXCOORD_0": 25
          },
          "indices": 26,
          "material": 0,
          "mode": 4
        }
      ]
    },
    {
      "name": "Circle.002_La Vaca_0",
      "primitives": [
        {
          "attributes": {
            "NORMAL": 28,
            "POSITION": 27,
            "TANGENT": 29,
            "TEXCOORD_0": 30
          },
          "indices": 31,
          "material": 0,
          "mode": 4
        }
      ]
    },
    {
      "name": "mesh_0.002_La Vaca_0",
      "primitives": [
        {
          "attributes": {
            "NORMAL": 33,
            "POSITION": 32,
            "TANGENT": 34,
            "TEXCOORD_0": 35,
            "TEXCOORD_1": 36,
            "TEXCOORD_2": 37,
            "TEXCOORD_3": 38,
            "TEXCOORD_4": 39,
            "TEXCOORD_5": 40,
            "TEXCOORD_6": 41,
            "TEXCOORD_7": 42
          },
          "indices": 43,
          "material": 0,
          "mode": 4
        }
      ]
    },
    {
      "name": "Circle.001_La Vaca_0",
      "primitives": [
        {
          "attributes": {
            "NORMAL": 45,
            "POSITION": 44,
            "TANGENT": 46,
            "TEXCOORD_0": 47
          },
          "indices": 48,
          "material": 0,
          "mode": 4
        }
      ]
    }
  ],
  "nodes": [
    {
      "children": [
        1
      ],
      "matrix": [
        1.0,
        0.0,
        0.0,
        0.0,
        0.0,
        2.220446049250313e-16,
        -1.0,
        0.0,
        0.0,
        1.0,
        2.220446049250313e-16,
        0.0,
        0.0,
        0.0,
        0.0,
        1.0
      ],
      "name": "Sketchfab_model"
    },
    {
      "children": [
        2
      ],
      "matrix": [
        0.009999999776482582,
        0.0,
        0.0,
        0.0,
        0.0,
        0.0,
        0.009999999776482582,
        0.0,
        0.0,
        -0.009999999776482582,
        0.0,
        0.0,
        0.0,
        0.0,
        0.0,
        1.0
      ],
      "name": "d0f65de85a8449c09d5f8f994536c0d8.fbx"
    },
    {
      "children": [
        3,
        5,
        7,
        9,
        11,
        13,
        15
      ],
      "name": "RootNode"
    },
    {
      "children": [
        4
      ],
      "matrix": [
        100.0,
        0.0,
        0.0,
        0.0,
        0.0,
        -1.629206793918314e-05,
        -99.99999999999868,
        0.0,
        0.0,
        99.99999999999868,
        -1.629206793918314e-05,
        0.0,
        0.0,
        0.0,
        0.0,
        1.0
      ],
      "name": "mesh_0.001"
    },
    {
      "mesh": 0,
      "name": "mesh_0.001_La Vaca_0"
    },
    {
      "children": [
        6
      ],
      "matrix": [
        100.0,
        0.0,
        0.0,
        0.0,
        0.0,
        -1.629206793918314e-05,
        -99.99999999999868,
        0.0,
        0.0,
        99.99999999999868,
        -1.629206793918314e-05,
        0.0,
        0.0,
        0.0,
        0.0,
        1.0
      ],
      "name": "Cube.001"
    },
    {
      "mesh": 1,
      "name": "Cube.001_La Vaca_0"
    },
    {
      "children": [
        8
      ],
      "matrix": [
        100.0,
        0.0,
        0.0,
        0.0,
        0.0,
        -1.629206793918314e-05,
        -99.99999999999868,
        0.0,
        0.0,
        99.99999999999868,
        -1.629206793918314e-05,
        0.0,
        0.0,
        0.0,
        0.0,
        1.0
      ],
      "name": "Cube.002"
    },
    {
      "mesh": 2,
      "name": "Cube.002_La Vaca_0"
    },
    {
      "children": [
        10
      ],
      "matrix": [
        100.0,
        0.0,
        0.0,
        0.0,
        0.0,
        -1.629206793918314e-05,
        -99.99999999999868,
        0.0,
        0.0,
        99.99999999999868,
        -1.629206793918314e-05,
        0.0,
        0.0,
        0.0,
        0.0,
        1.0
      ],
      "name": "Cylinder.001"
    },
    {
      "mesh": 3,
      "name": "Cylinder.001_La Vaca_0"
    },
    {
      "children": [
        12
      ],
      "matrix": [
        100.0,
        0.0,
        0.0,
        0.0,
        0.0,
        -1.629206793918314e-05,
        -99.99999999999868,
        0.0,
        0.0,
        99.99999999999868,
        -1.629206793918314e-05,
        0.0,
        0.0,
        0.0,
        0.0,
        1.0
      ],
      "name": "Circle.002"
    },
    {
      "mesh": 4,
      "name": "Circle.002_La Vaca_0"
    },
    {
      "children": [
        14
      ],
      "matrix": [
        100.0,
        0.0,
        0.0,
        0.0,
        0.0,
        -1.629206793918314e-05,
        -99.99999999999868,
        0.0,
        0.0,
        99.99999999999868,
        -1.629206793918314e-05,
        0.0,
        0.0,
        0.0,
        0.0,
        1.0
      ],
      "name": "mesh_0.002"
    },
    {
      "mesh": 5,
      "name": "mesh_0.002_La Vaca_0"
    },
    {
      "children": [
        16
      ],
      "matrix": [
        100.0,
        0.0,
        0.0,
        0.0,
        0.0,
        -1.629206793918314e-05,
        -99.99999999999868,
        0.0,
        0.0,
        99.99999999999868,
        -1.629206793918314e-05,
        0.0,
        0.0,
        0.0,
        0.0,
        1.0
      ],
      "name": "Circle.001"
    },
    {
      "mesh": 6,
      "name": "Circle.001_La Vaca_0"
    }
  ],
  "samplers": [
    {
      "magFilter": 9729,
      "minFilter": 9987,
      "wrapS": 10497,
      "wrapT": 10497
    }
  ],
  "scene": 0,
  "scenes": [
    {
      "name": "Sketchfab_Scene",
      "nodes": [
        0
      ]
    }
  ],
  "textures": [
    {
      "sampler": 0,
      "source": 0
    },
    {
      "sampler": 0,
      "source": 1
    },
    {
      "sampler": 0,
      "source": 2
    }
  ]
}
